<svg xmlns="http://www.w3.org/2000/svg" width="24" height="24" viewBox="0 0 24 24">
<g fill="#FFFFFF" fill-rule="evenodd">
<path d="M18.45,2.16L18.84,2.16Z"/>
<path d="M18.32,2.23L18.45,2.16Z"/>
<path d="M18.84,2.23L19.04,2.23Z"/>
<path d="M18.25,2.29L18.32,2.23Z"/>
<path d="M19.04,2.29L19.23,2.29Z"/>
<path d="M18.19,2.36L18.25,2.29Z"/>
<path d="M19.23,2.36L19.36,2.36Z"/>
<path d="M18.12,2.42L18.19,2.36Z"/>
<path d="M19.36,2.42L19.62,2.42Z"/>
<path d="M18.12,2.42L18.19,3.07L17.93,3.73L17.80,5.29L17.60,6.01L17.31,6.43L16.79,6.76L15.97,6.79Z"/>
<path d="M19.62,2.49L20.21,2.49Z"/>
<path d="M20.21,2.55L20.86,2.55Z"/>
<path d="M20.86,2.62L21.12,2.62Z"/>
<path d="M21.12,2.68L21.25,2.68Z"/>
<path d="M21.25,2.75L21.38,2.75Z"/>
<path d="M21.38,2.81L21.45,2.81Z"/>
<path d="M21.45,2.88L21.51,2.88Z"/>
<path d="M21.51,2.94L21.58,2.94Z"/>
<path d="M21.58,3.01L21.64,3.01Z"/>
<path d="M21.64,3.07L21.71,3.14Z"/>
<path d="M21.71,3.21L21.77,3.27Z"/>
<path d="M10.63,3.34L10.76,3.34Z"/>
<path d="M21.77,3.34L21.84,3.34L21.84,3.53Z"/>
<path d="M10.24,3.40L10.63,3.34Z"/>
<path d="M10.76,3.40L11.15,3.40Z"/>
<path d="M10.05,3.47L10.24,3.40Z"/>
<path d="M11.15,3.47L11.35,3.47Z"/>
<path d="M9.92,3.53L10.05,3.47Z"/>
<path d="M11.35,3.53L11.48,3.53Z"/>
<path d="M9.79,3.60L9.92,3.53Z"/>
<path d="M11.48,3.60L11.61,3.60Z"/>
<path d="M21.84,3.60L21.90,3.60L21.90,3.73L21.74,4.02L21.61,4.08L20.63,4.02L20.37,4.15L20.01,4.51L19.82,5.03L19.75,5.81L19.49,6.98L19.36,7.18L19.30,7.50L18.78,8.42L17.90,9.30L17.31,9.69L16.40,10.08L15.58,10.24L15.52,10.96L15.45,11.02L15.45,11.87L15.39,11.93L15.39,13.24Z"/>
<path d="M9.65,3.66L9.79,3.60Z"/>
<path d="M11.61,3.66L11.74,3.66Z"/>
<path d="M9.52,3.73L9.65,3.66Z"/>
<path d="M11.74,3.73L11.87,3.73Z"/>
<path d="M9.46,3.79L9.52,3.73Z"/>
<path d="M11.87,3.79L12.00,3.79Z"/>
<path d="M9.33,3.86L9.46,3.79Z"/>
<path d="M12.00,3.86L12.07,3.86Z"/>
<path d="M9.26,3.92L9.33,3.86Z"/>
<path d="M12.07,3.92L12.20,3.92Z"/>
<path d="M9.13,3.99L9.26,3.92Z"/>
<path d="M12.20,3.99L12.26,3.99Z"/>
<path d="M9.07,4.05L9.13,3.99Z"/>
<path d="M12.26,4.05L12.39,4.05Z"/>
<path d="M9.00,4.12L9.07,4.05Z"/>
<path d="M12.39,4.12L12.46,4.12Z"/>
<path d="M8.87,4.18L9.00,4.12Z"/>
<path d="M12.46,4.18L12.59,4.18Z"/>
<path d="M8.81,4.25L8.87,4.18Z"/>
<path d="M12.59,4.25L12.65,4.25Z"/>
<path d="M8.74,4.31L8.81,4.25Z"/>
<path d="M12.65,4.31L12.72,4.31Z"/>
<path d="M8.61,4.38L8.74,4.31Z"/>
<path d="M12.72,4.38L12.85,4.38Z"/>
<path d="M8.55,4.44L8.61,4.38Z"/>
<path d="M12.85,4.44L12.91,4.44Z"/>
<path d="M8.42,4.51L8.55,4.44Z"/>
<path d="M12.91,4.51L12.98,4.51Z"/>
<path d="M8.35,4.57L8.42,4.51Z"/>
<path d="M12.98,4.57L13.04,4.57Z"/>
<path d="M8.22,4.64L8.35,4.57Z"/>
<path d="M13.04,4.64L13.17,4.64Z"/>
<path d="M8.16,4.70L8.22,4.64Z"/>
<path d="M13.17,4.70L13.24,4.70Z"/>
<path d="M8.03,4.77L8.16,4.70Z"/>
<path d="M13.24,4.77L13.30,4.77Z"/>
<path d="M7.96,4.83L8.03,4.77Z"/>
<path d="M13.30,4.83L13.37,4.83Z"/>
<path d="M7.83,4.90L7.96,4.83Z"/>
<path d="M13.37,4.90L13.50,4.90Z"/>
<path d="M7.70,4.96L7.83,4.90Z"/>
<path d="M13.50,4.96L13.56,4.96Z"/>
<path d="M7.57,5.03L7.70,4.96Z"/>
<path d="M13.56,5.03L13.63,5.03Z"/>
<path d="M7.44,5.09L7.57,5.03Z"/>
<path d="M13.63,5.09L13.69,5.09Z"/>
<path d="M7.31,5.16L7.44,5.09Z"/>
<path d="M13.69,5.16L13.76,5.16Z"/>
<path d="M7.18,5.22L7.31,5.16Z"/>
<path d="M13.76,5.22L13.89,5.22Z"/>
<path d="M7.05,5.29L7.18,5.22Z"/>
<path d="M13.89,5.29L13.95,5.29Z"/>
<path d="M6.92,5.36L7.05,5.29Z"/>
<path d="M13.95,5.36L14.02,5.36Z"/>
<path d="M6.79,5.42L6.92,5.36Z"/>
<path d="M14.02,5.42L14.08,5.42Z"/>
<path d="M6.66,5.49L6.79,5.42Z"/>
<path d="M14.08,5.49L14.15,5.49Z"/>
<path d="M6.53,5.55L6.66,5.49Z"/>
<path d="M14.15,5.55L14.21,5.55Z"/>
<path d="M6.40,5.62L6.53,5.55Z"/>
<path d="M14.21,5.62L14.35,5.62Z"/>
<path d="M6.27,5.68L6.40,5.62Z"/>
<path d="M14.35,5.68L14.41,5.68Z"/>
<path d="M6.14,5.75L6.27,5.68Z"/>
<path d="M14.41,5.75L14.48,5.75Z"/>
<path d="M6.01,5.81L6.14,5.75Z"/>
<path d="M14.48,5.81L14.54,5.81Z"/>
<path d="M5.88,5.88L6.01,5.81Z"/>
<path d="M14.54,5.88L14.61,5.88Z"/>
<path d="M5.75,5.94L5.88,5.88Z"/>
<path d="M14.61,5.94L14.67,5.94Z"/>
<path d="M5.68,6.01L5.75,5.94Z"/>
<path d="M14.67,6.01L14.80,6.01Z"/>
<path d="M5.55,6.07L5.68,6.01Z"/>
<path d="M14.80,6.07L14.87,6.07Z"/>
<path d="M5.42,6.14L5.55,6.07Z"/>
<path d="M14.87,6.14L14.93,6.14Z"/>
<path d="M5.36,6.20L5.42,6.14Z"/>
<path d="M14.93,6.20L15.06,6.20Z"/>
<path d="M5.22,6.27L5.36,6.20Z"/>
<path d="M15.06,6.27L15.13,6.27Z"/>
<path d="M5.16,6.33L5.22,6.27Z"/>
<path d="M15.13,6.33L15.19,6.33Z"/>
<path d="M5.09,6.40L5.16,6.33Z"/>
<path d="M15.19,6.40L15.32,6.40Z"/>
<path d="M5.03,6.46L5.09,6.40Z"/>
<path d="M15.32,6.46L15.39,6.46Z"/>
<path d="M4.96,6.53L5.03,6.46Z"/>
<path d="M15.39,6.53L15.52,6.53Z"/>
<path d="M4.90,6.59L4.96,6.53Z"/>
<path d="M15.52,6.59L15.65,6.59Z"/>
<path d="M4.83,6.66L4.90,6.59Z"/>
<path d="M15.65,6.66L15.78,6.66Z"/>
<path d="M4.77,6.72L4.83,6.66Z"/>
<path d="M15.78,6.72L15.97,6.72Z"/>
<path d="M4.70,6.79L4.77,6.72Z"/>
<path d="M4.70,6.79L4.31,7.64L4.12,8.55L4.05,9.39L3.66,10.50L3.89,10.47L4.38,10.05L4.64,9.59L4.80,8.91L4.83,9.65L4.57,10.63L3.53,12.26L3.53,14.08L3.60,14.15L3.60,14.80L3.66,14.87L3.73,15.71L3.99,16.63L4.21,16.79L4.87,16.98L5.00,16.98L5.03,16.89L4.96,16.89Z"/>
<path d="M8.16,9.79L9.30,10.40L10.14,10.66L10.93,10.73L10.99,10.79L12.07,10.70L12.07,10.96L11.74,12.20L11.35,12.98L11.15,13.69L11.09,14.87L11.02,14.93L11.02,16.30L9.88,16.79L8.91,17.05L7.86,17.24L6.07,17.34Z"/>
<path d="M8.16,9.79L7.77,11.09L6.98,12.65L6.98,13.50Z"/>
<path d="M13.89,10.89L13.95,10.89L13.95,11.54L14.02,11.61L14.15,12.85L14.54,14.54L13.47,15.03L12.07,15.84Z"/>
<path d="M13.82,10.96L13.89,10.89Z"/>
<path d="M13.82,10.96L12.78,12.72L12.39,13.56L12.07,14.93L12.07,15.78Z"/>
<path d="M5.94,11.41L6.01,11.41L6.01,11.54L5.88,11.93L5.81,12.59L5.68,12.85L5.68,13.17L6.20,14.67L7.24,17.08L7.34,17.18L7.86,17.11L8.12,17.05L8.16,16.89L8.09,16.89Z"/>
<path d="M5.88,11.48L5.94,11.41Z"/>
<path d="M5.81,11.54L5.88,11.48Z"/>
<path d="M5.75,11.61L5.81,11.54Z"/>
<path d="M5.68,11.67L5.75,11.61Z"/>
<path d="M5.62,11.74L5.68,11.67Z"/>
<path d="M5.55,11.80L5.62,11.74Z"/>
<path d="M5.55,11.80L5.16,12.26L4.64,13.11L4.51,13.50L4.51,14.80Z"/>
<path d="M15.39,13.30L15.45,13.30L15.45,14.15Z"/>
<path d="M6.98,13.56L7.05,13.56L7.05,13.82Z"/>
<path d="M16.95,13.82L17.73,13.82Z"/>
<path d="M7.05,13.89L7.11,13.89L7.11,14.15Z"/>
<path d="M16.50,13.89L16.95,13.82Z"/>
<path d="M17.73,13.89L18.19,13.89Z"/>
<path d="M16.17,13.95L16.50,13.89Z"/>
<path d="M18.19,13.95L18.38,13.95Z"/>
<path d="M15.97,14.02L16.17,13.95Z"/>
<path d="M18.38,14.02L18.64,14.02Z"/>
<path d="M15.78,14.08L15.97,14.02Z"/>
<path d="M18.64,14.08L18.78,14.08Z"/>
<path d="M15.58,14.15L15.78,14.08Z"/>
<path d="M18.78,14.15L18.97,14.15Z"/>
<path d="M7.11,14.21L7.18,14.21L7.18,14.35Z"/>
<path d="M15.45,14.21L15.58,14.15Z"/>
<path d="M18.97,14.21L19.10,14.21Z"/>
<path d="M19.10,14.28L19.23,14.28Z"/>
<path d="M19.23,14.35L19.36,14.35Z"/>
<path d="M7.18,14.41L7.24,14.41L7.24,14.61Z"/>
<path d="M19.36,14.41L19.49,14.41Z"/>
<path d="M19.49,14.48L19.56,14.48Z"/>
<path d="M19.56,14.54L19.69,14.54Z"/>
<path d="M19.69,14.61L19.75,14.61Z"/>
<path d="M7.24,14.67L7.31,14.67L7.31,14.80Z"/>
<path d="M19.75,14.67L19.82,14.67Z"/>
<path d="M19.82,14.74L19.95,14.74Z"/>
<path d="M19.95,14.80L20.01,14.80Z"/>
<path d="M4.51,14.87L4.57,14.87L4.57,15.26Z"/>
<path d="M7.31,14.87L7.37,14.87L7.37,15.00Z"/>
<path d="M20.01,14.87L20.08,14.87Z"/>
<path d="M20.08,14.93L20.14,14.93Z"/>
<path d="M20.14,15.00L20.21,15.00Z"/>
<path d="M7.37,15.06L7.44,15.06L7.44,15.19Z"/>
<path d="M20.21,15.06L20.27,15.06Z"/>
<path d="M20.27,15.13L20.34,15.13Z"/>
<path d="M20.34,15.19L20.40,15.19Z"/>
<path d="M7.44,15.26L7.50,15.26L7.50,15.39Z"/>
<path d="M17.73,15.26L19.20,15.22L20.18,15.49L20.63,15.75L20.73,15.71Z"/>
<path d="M20.40,15.26L20.47,15.26Z"/>
<path d="M4.57,15.32L4.64,15.32L4.64,15.65Z"/>
<path d="M17.34,15.32L17.73,15.26Z"/>
<path d="M20.47,15.32L20.53,15.39Z"/>
<path d="M17.08,15.39L17.34,15.32Z"/>
<path d="M7.50,15.45L7.57,15.52Z"/>
<path d="M16.89,15.45L17.08,15.39Z"/>
<path d="M20.53,15.45L20.60,15.45Z"/>
<path d="M16.69,15.52L16.89,15.45Z"/>
<path d="M20.60,15.52L20.66,15.58Z"/>
<path d="M7.57,15.58L7.64,15.58L7.64,15.71Z"/>
<path d="M16.56,15.58L16.69,15.52Z"/>
<path d="M16.36,15.65L16.56,15.58Z"/>
<path d="M20.66,15.65L20.73,15.65Z"/>
<path d="M4.64,15.71L4.70,15.71L4.70,15.97Z"/>
<path d="M16.23,15.71L16.36,15.65Z"/>
<path d="M7.64,15.78L7.70,15.78L7.70,15.91Z"/>
<path d="M16.10,15.78L16.23,15.71Z"/>
<path d="M15.97,15.84L16.10,15.78Z"/>
<path d="M15.84,15.91L15.97,15.84Z"/>
<path d="M1.97,15.97L2.03,15.97Z"/>
<path d="M7.70,15.97L7.77,16.04Z"/>
<path d="M15.71,15.97L15.84,15.91Z"/>
<path d="M1.97,15.97L1.97,16.10L2.55,16.95L3.50,17.90L4.35,18.48L5.71,19.07L7.02,19.33L9.30,19.26L11.25,18.68L12.88,17.83L14.96,16.40L15.71,15.97Z"/>
<path d="M2.03,16.04L2.16,16.04Z"/>
<path d="M4.70,16.04L4.77,16.04L4.77,16.23Z"/>
<path d="M2.16,16.10L2.23,16.10Z"/>
<path d="M7.77,16.10L7.83,16.10L7.83,16.23Z"/>
<path d="M2.23,16.17L2.36,16.17Z"/>
<path d="M2.36,16.23L2.49,16.23Z"/>
<path d="M2.49,16.30L2.62,16.30Z"/>
<path d="M4.77,16.30L4.83,16.30L4.83,16.50Z"/>
<path d="M7.83,16.30L7.90,16.36Z"/>
<path d="M17.86,16.30L19.04,16.30Z"/>
<path d="M2.62,16.36L2.75,16.36Z"/>
<path d="M17.54,16.36L17.86,16.30Z"/>
<path d="M19.04,16.36L19.36,16.36Z"/>
<path d="M2.75,16.43L2.94,16.43Z"/>
<path d="M7.90,16.43L7.96,16.43L7.96,16.56Z"/>
<path d="M17.28,16.43L17.54,16.36Z"/>
<path d="M19.36,16.43L19.62,16.43Z"/>
<path d="M2.94,16.50L3.07,16.50Z"/>
<path d="M17.08,16.50L17.28,16.43Z"/>
<path d="M19.62,16.50L19.75,16.50Z"/>
<path d="M3.07,16.56L3.21,16.56Z"/>
<path d="M4.83,16.56L4.90,16.56L4.90,16.69Z"/>
<path d="M16.89,16.56L17.08,16.50Z"/>
<path d="M19.75,16.56L19.95,16.56Z"/>
<path d="M3.21,16.63L3.40,16.63Z"/>
<path d="M7.96,16.63L8.03,16.69Z"/>
<path d="M16.76,16.63L16.89,16.56Z"/>
<path d="M19.95,16.63L20.08,16.63Z"/>
<path d="M3.40,16.69L3.53,16.69Z"/>
<path d="M16.56,16.69L16.76,16.63Z"/>
<path d="M20.08,16.69L20.21,16.69Z"/>
<path d="M3.53,16.76L3.73,16.76Z"/>
<path d="M4.90,16.76L4.96,16.82Z"/>
<path d="M8.03,16.76L8.09,16.82Z"/>
<path d="M16.43,16.76L16.56,16.69Z"/>
<path d="M20.21,16.76L20.34,16.76Z"/>
<path d="M3.73,16.82L3.92,16.82Z"/>
<path d="M16.30,16.82L16.43,16.76Z"/>
<path d="M20.34,16.82L20.40,16.82Z"/>
<path d="M3.92,16.89L4.12,16.89Z"/>
<path d="M16.17,16.89L16.30,16.82Z"/>
<path d="M20.40,16.89L20.53,16.89Z"/>
<path d="M4.12,16.95L4.31,16.95Z"/>
<path d="M16.04,16.95L16.17,16.89Z"/>
<path d="M20.53,16.95L20.60,16.95Z"/>
<path d="M4.31,17.02L4.51,17.02Z"/>
<path d="M15.91,17.02L16.04,16.95Z"/>
<path d="M20.60,17.02L20.73,17.02Z"/>
<path d="M4.51,17.08L4.77,17.08Z"/>
<path d="M15.78,17.08L15.91,17.02Z"/>
<path d="M20.73,17.08L20.79,17.08Z"/>
<path d="M4.77,17.15L5.09,17.15Z"/>
<path d="M15.71,17.15L15.78,17.08Z"/>
<path d="M20.79,17.15L20.86,17.15Z"/>
<path d="M5.09,17.21L5.49,17.21Z"/>
<path d="M15.58,17.21L15.71,17.15Z"/>
<path d="M20.86,17.21L20.93,17.21Z"/>
<path d="M5.49,17.28L6.07,17.28Z"/>
<path d="M15.45,17.28L15.58,17.21Z"/>
<path d="M20.93,17.28L20.99,17.28Z"/>
<path d="M15.39,17.34L15.45,17.28Z"/>
<path d="M20.99,17.34L21.06,17.34Z"/>
<path d="M15.26,17.41L15.39,17.34Z"/>
<path d="M21.06,17.41L21.12,17.41Z"/>
<path d="M15.19,17.47L15.26,17.41Z"/>
<path d="M21.12,17.47L21.19,17.47Z"/>
<path d="M15.06,17.54L15.19,17.47Z"/>
<path d="M21.19,17.54L21.25,17.54Z"/>
<path d="M14.93,17.60L15.06,17.54Z"/>
<path d="M21.25,17.60L21.32,17.60Z"/>
<path d="M14.87,17.67L14.93,17.60Z"/>
<path d="M21.32,17.67L21.38,17.67Z"/>
<path d="M14.74,17.73L14.87,17.67Z"/>
<path d="M21.38,17.73L21.45,17.73Z"/>
<path d="M14.67,17.80L14.74,17.73Z"/>
<path d="M21.45,17.80L21.51,17.86Z"/>
<path d="M14.54,17.86L14.67,17.80Z"/>
<path d="M14.48,17.93L14.54,17.86Z"/>
<path d="M21.51,17.93L21.58,17.93Z"/>
<path d="M14.35,17.99L14.48,17.93Z"/>
<path d="M18.91,17.99L20.24,17.96L21.35,18.29L21.87,18.61L21.97,18.58L21.90,18.51Z"/>
<path d="M21.58,17.99L21.64,17.99Z"/>
<path d="M14.28,18.06L14.35,17.99Z"/>
<path d="M18.51,18.06L18.91,17.99Z"/>
<path d="M21.64,18.06L21.71,18.12Z"/>
<path d="M14.15,18.12L14.28,18.06Z"/>
<path d="M18.32,18.12L18.51,18.06Z"/>
<path d="M14.08,18.19L14.15,18.12Z"/>
<path d="M18.12,18.19L18.32,18.12Z"/>
<path d="M21.71,18.19L21.77,18.19Z"/>
<path d="M13.95,18.25L14.08,18.19Z"/>
<path d="M17.93,18.25L18.12,18.19Z"/>
<path d="M21.77,18.25L21.84,18.32Z"/>
<path d="M13.89,18.32L13.95,18.25Z"/>
<path d="M17.80,18.32L17.93,18.25Z"/>
<path d="M13.76,18.38L13.89,18.32Z"/>
<path d="M17.60,18.38L17.80,18.32Z"/>
<path d="M21.84,18.38L21.90,18.45Z"/>
<path d="M13.69,18.45L13.76,18.38Z"/>
<path d="M17.47,18.45L17.60,18.38Z"/>
<path d="M13.56,18.51L13.69,18.45Z"/>
<path d="M17.34,18.51L17.47,18.45Z"/>
<path d="M13.43,18.58L13.56,18.51Z"/>
<path d="M17.21,18.58L17.34,18.51Z"/>
<path d="M13.37,18.64L13.43,18.58Z"/>
<path d="M17.08,18.64L17.21,18.58Z"/>
<path d="M13.24,18.71L13.37,18.64Z"/>
<path d="M16.95,18.71L17.08,18.64Z"/>
<path d="M13.11,18.78L13.24,18.71Z"/>
<path d="M16.89,18.78L16.95,18.71Z"/>
<path d="M13.04,18.84L13.11,18.78Z"/>
<path d="M16.76,18.84L16.89,18.78Z"/>
<path d="M12.91,18.91L13.04,18.84Z"/>
<path d="M16.63,18.91L16.76,18.84Z"/>
<path d="M12.78,18.97L12.91,18.91Z"/>
<path d="M16.56,18.97L16.63,18.91Z"/>
<path d="M12.65,19.04L12.78,18.97Z"/>
<path d="M16.43,19.04L16.56,18.97Z"/>
<path d="M12.59,19.10L12.65,19.04Z"/>
<path d="M16.30,19.10L16.43,19.04Z"/>
<path d="M12.46,19.17L12.59,19.10Z"/>
<path d="M16.23,19.17L16.30,19.10Z"/>
<path d="M12.33,19.23L12.46,19.17Z"/>
<path d="M16.10,19.23L16.23,19.17Z"/>
<path d="M12.20,19.30L12.33,19.23Z"/>
<path d="M16.04,19.30L16.10,19.23Z"/>
<path d="M12.07,19.36L12.20,19.30Z"/>
<path d="M15.91,19.36L16.04,19.30Z"/>
<path d="M11.93,19.43L12.07,19.36Z"/>
<path d="M15.78,19.43L15.91,19.36Z"/>
<path d="M11.80,19.49L11.93,19.43Z"/>
<path d="M15.71,19.49L15.78,19.43Z"/>
<path d="M11.67,19.56L11.80,19.49Z"/>
<path d="M15.58,19.56L15.71,19.49Z"/>
<path d="M11.54,19.62L11.67,19.56Z"/>
<path d="M15.52,19.62L15.58,19.56Z"/>
<path d="M11.35,19.69L11.54,19.62Z"/>
<path d="M15.39,19.69L15.52,19.62Z"/>
<path d="M11.22,19.75L11.35,19.69Z"/>
<path d="M15.32,19.75L15.39,19.69Z"/>
<path d="M5.09,19.82L5.22,19.82Z"/>
<path d="M11.02,19.82L11.22,19.75Z"/>
<path d="M15.19,19.82L15.32,19.75Z"/>
<path d="M5.09,19.82L5.91,20.57L7.28,21.35L7.80,21.54L9.10,21.80L10.60,21.74L11.97,21.41L13.14,20.96L15.19,19.82Z"/>
<path d="M5.22,19.88L5.36,19.88Z"/>
<path d="M10.83,19.88L11.02,19.82Z"/>
<path d="M5.36,19.95L5.55,19.95Z"/>
<path d="M10.70,19.95L10.83,19.88Z"/>
<path d="M5.55,20.01L5.75,20.01Z"/>
<path d="M10.50,20.01L10.70,19.95Z"/>
<path d="M5.75,20.08L5.94,20.08Z"/>
<path d="M10.24,20.08L10.50,20.01Z"/>
<path d="M5.94,20.14L6.20,20.14Z"/>
<path d="M10.05,20.14L10.24,20.08Z"/>
<path d="M6.20,20.21L6.46,20.21Z"/>
<path d="M9.72,20.21L10.05,20.14Z"/>
<path d="M6.46,20.27L6.79,20.27Z"/>
<path d="M9.39,20.27L9.72,20.21Z"/>
<path d="M6.79,20.34L7.18,20.34Z"/>
<path d="M9.00,20.34L9.39,20.27Z"/>
<path d="M7.18,20.40L9.00,20.34Z"/>
</g></svg>